<svg xmlns="http://www.w3.org/2000/svg" width="160" height="160" fill="none"><g clip-path="url(#a)"><path fill="#fff" d="M160 0H0v160h160V0Z"/><path fill="#000" d="M58.181 9.697h-4.848v4.848h4.849V9.697Zm9.698 0H63.03v4.848h4.849V9.697Zm14.545 0h-4.848v4.848h4.848V9.697Zm19.394 0H96.97v4.848h4.848V9.697Zm4.848 0h-4.848v4.848h4.848V9.697Zm-48.485 4.849h-4.848v4.848h4.849v-4.848Zm9.698 0H63.03v4.848h4.849v-4.848Z"/><path fill="#000" d="M72.727 14.546h-4.849v4.848h4.849v-4.848Zm19.393 0h-4.848v4.848h4.849v-4.848Z"/><path fill="#000" d="M96.97 14.546h-4.85v4.848h4.849v-4.848Zm4.848 0H96.97v4.848h4.848v-4.848Zm9.697 0h-4.848v4.848h4.848v-4.848Zm-53.334 4.848h-4.848v4.848h4.849v-4.848Zm24.243 0h-4.848v4.848h4.848v-4.848Zm4.848 0h-4.848v4.848h4.848v-4.848Zm9.698 0h-4.85v4.848h4.849v-4.848Zm4.848 0H96.97v4.848h4.848v-4.848Zm4.848 0h-4.848v4.848h4.848v-4.848Zm4.849 0h-4.848v4.848h4.848v-4.848Zm-53.334 4.848h-4.848v4.849h4.849v-4.849Zm4.849 0h-4.848v4.849h4.848v-4.849Zm4.849 0H63.03v4.849h4.849v-4.849Zm9.697 0h-4.849v4.849h4.849v-4.849Zm14.544 0h-4.848v4.849h4.849v-4.849Z"/><path fill="#000" d="M67.879 29.09H63.03v4.85h4.849v-4.85Zm29.091 0h-4.85v4.85h4.849v-4.85Zm4.848 0H96.97v4.85h4.848v-4.85Zm9.697 0h-4.848v4.85h4.848v-4.85Zm-58.182 4.85h-4.848v4.848h4.848v-4.849Zm4.848 0h-4.848v4.848h4.849v-4.849Z"/><path fill="#000" d="M67.879 33.94H63.03v4.848h4.849v-4.849Zm19.393 0h-4.848v4.848h4.848v-4.849Zm4.848 0h-4.848v4.848h4.849v-4.849Z"/><path fill="#000" d="M96.97 33.94h-4.85v4.848h4.849v-4.849Zm4.848 0H96.97v4.848h4.848v-4.849Zm4.848 0h-4.848v4.848h4.848v-4.849Zm-53.333 4.848h-4.848v4.848h4.848v-4.848Zm9.697 0h-4.848v4.848h4.848v-4.848Zm9.697 0h-4.849v4.848h4.849v-4.848Zm9.697 0h-4.848v4.848h4.848v-4.848Zm9.696 0h-4.848v4.848h4.849v-4.848Zm9.698 0H96.97v4.848h4.848v-4.848Zm9.697 0h-4.848v4.848h4.848v-4.848Zm-43.636 4.848H63.03v4.849h4.849v-4.849Z"/><path fill="#000" d="M72.727 43.636h-4.849v4.849h4.849v-4.849Z"/><path fill="#000" d="M77.576 43.636h-4.849v4.849h4.849v-4.849Zm9.696 0h-4.848v4.849h4.848v-4.849Zm4.848 0h-4.848v4.849h4.849v-4.849Z"/><path fill="#000" d="M96.97 43.636h-4.85v4.849h4.849v-4.849Zm4.848 0H96.97v4.849h4.848v-4.849Zm4.848 0h-4.848v4.849h4.848v-4.849Zm4.849 0h-4.848v4.849h4.848v-4.849Zm-96.97 4.849H9.697v4.848h4.848v-4.848Zm14.545 0h-4.848v4.848h4.849v-4.848Zm9.697 0H33.94v4.848h4.848v-4.848Zm4.849 0h-4.848v4.848h4.848v-4.848Zm9.697 0h-4.848v4.848h4.848v-4.848Zm9.697 0h-4.848v4.848h4.848v-4.848Zm9.697 0h-4.849v4.848h4.849v-4.848Zm9.697 0h-4.848v4.848h4.848v-4.848Zm9.696 0h-4.848v4.848h4.849v-4.848Zm14.546 0h-4.848v4.848h4.848v-4.848Zm9.698 0h-4.849v4.848h4.849v-4.848Zm9.696 0h-4.848v4.848h4.848v-4.848ZM19.394 53.333h-4.849v4.849h4.849v-4.849Zm4.848 0h-4.848v4.849h4.848v-4.849Zm24.243 0h-4.849v4.849h4.849v-4.849Zm29.091 0h-4.849v4.849h4.849v-4.849Zm9.696 0h-4.848v4.849h4.848v-4.849Zm4.848 0h-4.848v4.849h4.849v-4.849Zm19.395 0h-4.848v4.849h4.848v-4.849Zm9.697 0h-4.849v4.849h4.849v-4.849Zm14.545 0h-4.848v4.849h4.848v-4.849Zm14.546 0h-4.849v4.849h4.849v-4.849ZM14.545 58.182H9.697v4.848h4.848v-4.848Zm9.697 0h-4.848v4.848h4.848v-4.848Zm4.848 0h-4.848v4.848h4.849v-4.848Zm9.697 0H33.94v4.848h4.848v-4.848Zm4.849 0h-4.848v4.848h4.848v-4.848Zm4.849 0h-4.849v4.848h4.849v-4.848Zm4.848 0h-4.848v4.848h4.848v-4.848Zm4.848 0h-4.848v4.848h4.849v-4.848Zm9.698 0H63.03v4.848h4.849v-4.848Zm9.697 0h-4.849v4.848h4.849v-4.848Zm4.848 0h-4.848v4.848h4.848v-4.848Zm4.848 0h-4.848v4.848h4.848v-4.848Zm19.394 0h-4.848v4.848h4.848v-4.848Zm14.546 0h-4.849v4.848h4.849v-4.848Zm14.545 0h-4.848v4.848h4.848v-4.848Zm4.849 0h-4.849v4.848h4.849v-4.848Zm4.848 0h-4.848v4.848h4.848v-4.848ZM19.394 63.03h-4.849v4.849h4.849V63.03Zm19.393 0H33.94v4.849h4.848V63.03Zm9.698 0h-4.849v4.849h4.849V63.03Zm4.848 0h-4.848v4.849h4.848V63.03Zm9.697 0h-4.848v4.849h4.848V63.03Zm4.849 0H63.03v4.849h4.849V63.03Zm9.697 0h-4.849v4.849h4.849V63.03Zm14.544 0h-4.848v4.849h4.849V63.03Zm19.395 0h-4.848v4.849h4.848V63.03Zm14.545 0h-4.848v4.849h4.848V63.03Zm4.849 0h-4.848v4.849h4.848V63.03Zm9.697 0h-4.849v4.849h4.849V63.03Zm4.848 0h-4.848v4.849h4.848V63.03ZM14.545 67.879H9.697v4.848h4.848V67.88Z"/><path fill="#000" d="M19.394 67.879h-4.849v4.848h4.849V67.88Zm14.546 0h-4.85v4.848h4.85V67.88Zm9.696 0h-4.848v4.848h4.848V67.88Zm4.849 0h-4.849v4.848h4.849V67.88Zm9.696 0h-4.848v4.848h4.849V67.88Zm4.849 0h-4.848v4.848h4.848V67.88Zm19.394 0h-4.848v4.848h4.848V67.88Zm4.848 0h-4.848v4.848h4.848V67.88Zm4.848 0h-4.848v4.848h4.849V67.88Z"/><path fill="#000" d="M96.97 67.879h-4.85v4.848h4.849V67.88Zm14.545 0h-4.848v4.848h4.848V67.88Zm4.849 0h-4.849v4.848h4.849V67.88Z"/><path fill="#000" d="M121.212 67.879h-4.849v4.848h4.849V67.88Zm14.545 0h-4.848v4.848h4.848V67.88Zm9.697 0h-4.848v4.848h4.848V67.88Zm4.849 0h-4.849v4.848h4.849V67.88ZM14.545 72.727H9.697v4.849h4.848v-4.849Zm9.697 0h-4.848v4.849h4.848v-4.849Zm14.545 0H33.94v4.849h4.848v-4.849Zm9.698 0h-4.849v4.849h4.849v-4.849Zm9.696 0h-4.848v4.849h4.849v-4.849Zm19.395 0h-4.849v4.849h4.849v-4.849Zm4.848 0h-4.848v4.849h4.848v-4.849Zm4.848 0h-4.848v4.849h4.848v-4.849Zm4.848 0h-4.848v4.849h4.849v-4.849Zm14.546 0h-4.848v4.849h4.848v-4.849Zm4.849 0h-4.848v4.849h4.848v-4.849Zm14.545 0h-4.848v4.849h4.848v-4.849Z"/><path fill="#000" d="M19.394 77.576h-4.849v4.848h4.849v-4.848Zm4.848 0h-4.848v4.848h4.848v-4.848Zm4.848 0h-4.848v4.848h4.849v-4.848Z"/><path fill="#000" d="M33.94 77.576h-4.85v4.848h4.85v-4.848Zm9.696 0h-4.848v4.848h4.848v-4.848Zm4.849 0h-4.849v4.848h4.849v-4.848Zm4.848 0h-4.848v4.848h4.848v-4.848Zm9.697 0h-4.848v4.848h4.848v-4.848Zm4.849 0H63.03v4.848h4.849v-4.848Z"/><path fill="#000" d="M72.727 77.576h-4.849v4.848h4.849v-4.848Z"/><path fill="#000" d="M77.576 77.576h-4.849v4.848h4.849v-4.848Zm4.848 0h-4.848v4.848h4.848v-4.848Zm14.546 0h-4.85v4.848h4.849v-4.848Zm4.848 0H96.97v4.848h4.848v-4.848Zm19.394 0h-4.849v4.848h4.849v-4.848Zm14.545 0h-4.848v4.848h4.848v-4.848Zm4.849 0h-4.849v4.848h4.849v-4.848Zm4.848 0h-4.848v4.848h4.848v-4.848Zm4.849 0h-4.849v4.848h4.849v-4.848ZM29.09 82.424h-4.848v4.849h4.849v-4.849Z"/><path fill="#000" d="M33.94 82.424h-4.85v4.849h4.85v-4.849Zm14.545 0h-4.849v4.849h4.849v-4.849Zm9.696 0h-4.848v4.849h4.849v-4.849Zm9.698 0H63.03v4.849h4.849v-4.849Z"/><path fill="#000" d="M72.727 82.424h-4.849v4.849h4.849v-4.849Zm14.545 0h-4.848v4.849h4.848v-4.849Zm4.848 0h-4.848v4.849h4.849v-4.849Z"/><path fill="#000" d="M96.97 82.424h-4.85v4.849h4.849v-4.849Zm4.848 0H96.97v4.849h4.848v-4.849Zm9.697 0h-4.848v4.849h4.848v-4.849Zm24.242 0h-4.848v4.849h4.848v-4.849Zm9.697 0h-4.848v4.849h4.848v-4.849Zm-126.06 4.849h-4.849v4.848h4.849v-4.848Zm24.242 0h-4.848v4.848h4.848v-4.848Zm9.697 0h-4.848v4.848h4.848v-4.848Zm4.848 0h-4.848v4.848h4.849v-4.848Zm9.698 0H63.03v4.848h4.849v-4.848Zm9.697 0h-4.849v4.848h4.849v-4.848Z"/><path fill="#000" d="M96.97 87.273h-4.85v4.848h4.849v-4.848Zm14.545 0h-4.848v4.848h4.848v-4.848Zm4.849 0h-4.849v4.848h4.849v-4.848Zm9.696 0h-4.848v4.848h4.848v-4.848Zm19.394 0h-4.848v4.848h4.848v-4.848Zm-126.06 4.848h-4.849v4.849h4.849v-4.85Zm4.848 0h-4.848v4.849h4.848v-4.85Zm9.698 0h-4.85v4.849h4.85v-4.85Zm4.847 0H33.94v4.849h4.848v-4.85Zm14.546 0h-4.848v4.849h4.848v-4.85Zm4.848 0h-4.848v4.849h4.849v-4.85Zm4.849 0h-4.848v4.849h4.848v-4.85Zm4.849 0H63.03v4.849h4.849v-4.85Zm9.697 0h-4.849v4.849h4.849v-4.85Zm4.848 0h-4.848v4.849h4.848v-4.85Z"/><path fill="#000" d="M92.12 92.121h-4.848v4.849h4.849v-4.85Zm19.395 0h-4.848v4.849h4.848v-4.85Zm9.697 0h-4.849v4.849h4.849v-4.85Zm4.848 0h-4.848v4.849h4.848v-4.85Zm9.697 0h-4.848v4.849h4.848v-4.85Zm14.546 0h-4.849v4.849h4.849v-4.85ZM14.545 96.97H9.697v4.848h4.848V96.97Zm9.697 0h-4.848v4.848h4.848V96.97Zm14.545 0H33.94v4.848h4.848V96.97Zm4.849 0h-4.848v4.848h4.848V96.97Zm14.545 0h-4.848v4.848h4.849V96.97Zm4.849 0h-4.848v4.848h4.848V96.97Zm9.697 0h-4.849v4.848h4.849V96.97Zm9.697 0h-4.848v4.848h4.848V96.97Zm9.696 0h-4.848v4.848h4.849V96.97Z"/><path fill="#000" d="M96.97 96.97h-4.85v4.848h4.849V96.97Zm19.394 0h-4.849v4.848h4.849V96.97Z"/><path fill="#000" d="M121.212 96.97h-4.849v4.848h4.849V96.97Zm4.848 0h-4.848v4.848h4.848V96.97Zm19.394 0h-4.848v4.848h4.848V96.97Zm4.849 0h-4.849v4.848h4.849V96.97Zm-126.061 4.848h-4.848v4.849h4.848v-4.849Zm4.848 0h-4.848v4.849h4.849v-4.849Z"/><path fill="#000" d="M33.94 101.818h-4.85v4.849h4.85v-4.849Zm4.847 0H33.94v4.849h4.848v-4.849Zm14.546 0h-4.848v4.849h4.848v-4.849Zm4.848 0h-4.848v4.849h4.849v-4.849Zm4.849 0h-4.848v4.849h4.848v-4.849Zm4.849 0H63.03v4.849h4.849v-4.849Zm14.545 0h-4.848v4.849h4.848v-4.849Zm4.848 0h-4.848v4.849h4.848v-4.849Zm9.698 0h-4.85v4.849h4.849v-4.849Zm14.545 0h-4.848v4.849h4.848v-4.849Zm9.697 0h-4.849v4.849h4.849v-4.849Zm24.242 0h-4.848v4.849h4.848v-4.849Zm4.849 0h-4.849v4.849h4.849v-4.849Zm-135.758 4.849H9.697v4.848h4.848v-4.848Zm14.545 0h-4.848v4.848h4.849v-4.848Z"/><path fill="#000" d="M33.94 106.667h-4.85v4.848h4.85v-4.848Zm9.696 0h-4.848v4.848h4.848v-4.848Zm19.394 0h-4.848v4.848h4.848v-4.848Zm24.242 0h-4.848v4.848h4.848v-4.848Zm4.848 0h-4.848v4.848h4.849v-4.848Zm19.395 0h-4.848v4.848h4.848v-4.848Zm4.849 0h-4.849v4.848h4.849v-4.848Z"/><path fill="#000" d="M121.212 106.667h-4.849v4.848h4.849v-4.848Zm4.848 0h-4.848v4.848h4.848v-4.848Zm4.849 0h-4.848v4.848h4.848v-4.848Zm9.697 0h-4.849v4.848h4.849v-4.848Zm-87.273 4.848h-4.848v4.849h4.848v-4.849Zm4.848 0h-4.848v4.849h4.849v-4.849Zm4.849 0h-4.848v4.849h4.848v-4.849Zm4.849 0H63.03v4.849h4.849v-4.849Zm14.545 0h-4.848v4.849h4.848v-4.849Zm9.696 0h-4.848v4.849h4.849v-4.849Z"/><path fill="#000" d="M96.97 111.515h-4.85v4.849h4.849v-4.849Zm9.696 0h-4.848v4.849h4.848v-4.849Zm4.849 0h-4.848v4.849h4.848v-4.849Zm19.394 0h-4.848v4.849h4.848v-4.849Zm9.697 0h-4.849v4.849h4.849v-4.849Zm4.848 0h-4.848v4.849h4.848v-4.849Zm4.849 0h-4.849v4.849h4.849v-4.849Zm-58.183 4.849h-4.848v4.848h4.849v-4.848Zm19.395 0h-4.848v4.848h4.848v-4.848Zm9.697 0h-4.849v4.848h4.849v-4.848Zm9.697 0h-4.848v4.848h4.848v-4.848Zm14.545 0h-4.848v4.848h4.848v-4.848Zm-92.121 4.848h-4.848v4.849h4.848v-4.849Zm4.848 0h-4.848v4.849h4.849v-4.849Zm9.698 0H63.03v4.849h4.849v-4.849Z"/><path fill="#000" d="M72.727 121.212h-4.849v4.849h4.849v-4.849Zm9.697 0h-4.848v4.849h4.848v-4.849Zm4.848 0h-4.848v4.849h4.848v-4.849Zm14.546 0H96.97v4.849h4.848v-4.849Zm9.697 0h-4.848v4.849h4.848v-4.849Zm19.394 0h-4.848v4.849h4.848v-4.849Zm4.848 0h-4.848v4.849h4.848v-4.849Zm4.849 0h-4.849v4.849h4.849v-4.849Zm-77.576 4.849h-4.848v4.848h4.848v-4.848Zm24.242 0h-4.848v4.848h4.848v-4.848Zm9.698 0h-4.85v4.848h4.849v-4.848Zm14.545 0h-4.848v4.848h4.848v-4.848Zm4.849 0h-4.849v4.848h4.849v-4.848Z"/><path fill="#000" d="M121.212 126.061h-4.849v4.848h4.849v-4.848Zm4.848 0h-4.848v4.848h4.848v-4.848Zm4.849 0h-4.848v4.848h4.848v-4.848Zm19.394 0h-4.849v4.848h4.849v-4.848Zm-96.97 4.848h-4.848v4.849h4.848v-4.849Zm4.848 0h-4.848v4.849h4.849v-4.849Zm9.698 0H63.03v4.849h4.849v-4.849Z"/><path fill="#000" d="M72.727 130.909h-4.849v4.849h4.849v-4.849Zm24.243 0h-4.85v4.849h4.849v-4.849Zm4.848 0H96.97v4.849h4.848v-4.849Zm4.848 0h-4.848v4.849h4.848v-4.849Zm14.546 0h-4.849v4.849h4.849v-4.849Zm9.697 0h-4.848v4.849h4.848v-4.849Zm4.848 0h-4.848v4.849h4.848v-4.849Zm4.849 0h-4.849v4.849h4.849v-4.849Zm4.848 0h-4.848v4.849h4.848v-4.849Zm-87.273 4.849h-4.848v4.848h4.849v-4.848Zm4.849 0h-4.848v4.848h4.848v-4.848Zm14.546 0h-4.849v4.848h4.849v-4.848Zm14.544 0h-4.848v4.848h4.849v-4.848Zm9.698 0H96.97v4.848h4.848v-4.848Zm4.848 0h-4.848v4.848h4.848v-4.848Zm24.243 0h-4.848v4.848h4.848v-4.848Zm4.848 0h-4.848v4.848h4.848v-4.848Zm4.849 0h-4.849v4.848h4.849v-4.848Zm9.697 0h-4.849v4.848h4.849v-4.848Zm-92.122 4.848h-4.848v4.849h4.849v-4.849Zm4.849 0h-4.848v4.849h4.848v-4.849Zm9.697 0h-4.849v4.849h4.849v-4.849Z"/><path fill="#000" d="M77.576 140.606h-4.849v4.849h4.849v-4.849Zm4.848 0h-4.848v4.849h4.848v-4.849Zm4.848 0h-4.848v4.849h4.848v-4.849Zm4.848 0h-4.848v4.849h4.849v-4.849Z"/><path fill="#000" d="M96.97 140.606h-4.85v4.849h4.849v-4.849Zm4.848 0H96.97v4.849h4.848v-4.849Zm9.697 0h-4.848v4.849h4.848v-4.849Zm19.394 0h-4.848v4.849h4.848v-4.849Zm14.545 0h-4.848v4.849h4.848v-4.849Zm-92.121 4.849h-4.848v4.848h4.848v-4.848Zm4.848 0h-4.848v4.848h4.849v-4.848Zm9.698 0H63.03v4.848h4.849v-4.848Z"/><path fill="#000" d="M72.727 145.455h-4.849v4.848h4.849v-4.848Zm9.697 0h-4.848v4.848h4.848v-4.848Zm9.696 0h-4.848v4.848h4.849v-4.848Z"/><path fill="#000" d="M96.97 145.455h-4.85v4.848h4.849v-4.848Zm14.545 0h-4.848v4.848h4.848v-4.848Zm4.849 0h-4.849v4.848h4.849v-4.848Zm9.696 0h-4.848v4.848h4.848v-4.848Zm4.849 0h-4.848v4.848h4.848v-4.848Zm14.545 0h-4.848v4.848h4.848v-4.848ZM38.545 9.697H9.697v33.939h33.939V9.697h-5.09Zm0 28.848H14.788V14.788h23.757v23.757ZM145.212 9.697h-28.849v33.939h33.94V9.697h-5.091Zm0 28.848h-23.758V14.788h23.758v23.757ZM38.545 116.364H9.697v33.939h33.939v-33.939h-5.09Zm0 28.848H14.788v-23.757h23.757v23.757Z"/><path fill="#000" d="M33.939 19.394H19.394v14.545h14.545V19.394Zm106.667 0h-14.545v14.545h14.545V19.394ZM33.939 126.061H19.394v14.545h14.545v-14.545Z"/></g><defs><clipPath id="a"><path fill="#fff" d="M0 0h160v160H0z"/></clipPath></defs></svg>